# xmcd
#
# Track frame offsets: 
#        150
#        11727
#        24272
#        36914
#        60293
#        72211
#        85178
#        99731
#        114593
#        132349
#        150852
#        173780
#
# Disc length: 2472 seconds
#
# Revision: 0
# Processed by: cddbd v1.5.2PL0 Copyright (c) Steve Scherf et al.
# Submitted via: ExactAudioCopyFreeDBPlugin 1.0
#
DISCID=8c09a60c
DTITLE=The Prairie Dawgs - The Prairie Dawgs
DYEAR=1900
DGENRE=
TTITLE0=ain't no money
TTITLE1=neighbourhood
TTITLE2=howlin' wind
TTITLE3=come on over
TTITLE4=i like it
TTITLE5=old man
TTITLE6=drift away
TTITLE7=i'm so lonesome i could cry
TTITLE8=some chickens
TTITLE9=creepy shady
TTITLE10=another shot
TTITLE11=momma angels
EXTD=
EXTT0=
EXTT1=
EXTT2=
EXTT3=
EXTT4=
EXTT5=
EXTT6=
EXTT7=
EXTT8=
EXTT9=
EXTT10=
EXTT11=
PLAYORDER=
